<?xml version="1.0" encoding="UTF-8" standalone="no"?>
<svg
   fill="#4b8add"
   height="800"
   width="800"
   version="1.1"
   id="Layer_1"
   viewBox="0 0 512 512"
   xml:space="preserve"
   sodipodi:docname="download(1).svg"
   inkscape:export-filename="icon-tennis.svg"
   inkscape:export-xdpi="96"
   inkscape:export-ydpi="96"
   inkscape:version="1.4 (86a8ad7, 2024-10-11)"
   xmlns:inkscape="http://www.inkscape.org/namespaces/inkscape"
   xmlns:sodipodi="http://sodipodi.sourceforge.net/DTD/sodipodi-0.dtd"
   xmlns:xlink="http://www.w3.org/1999/xlink"
   xmlns="http://www.w3.org/2000/svg"
   xmlns:svg="http://www.w3.org/2000/svg"><defs
   id="defs2"><linearGradient
     id="linearGradient2"
     inkscape:collect="always"><stop
       style="stop-color:#71a9f7;stop-opacity:1;"
       offset="0.25999999"
       id="stop2" /><stop
       style="stop-color:#1f58a8;stop-opacity:1;"
       offset="1"
       id="stop3" /></linearGradient><linearGradient
     inkscape:collect="always"
     xlink:href="#linearGradient2"
     id="linearGradient3"
     x1="131.88873"
     y1="32.097355"
     x2="380.11127"
     y2="479.90265"
     gradientUnits="userSpaceOnUse" /></defs><sodipodi:namedview
   id="namedview2"
   pagecolor="#ffffff"
   bordercolor="#000000"
   borderopacity="0.25"
   inkscape:showpageshadow="2"
   inkscape:pageopacity="0.0"
   inkscape:pagecheckerboard="0"
   inkscape:deskcolor="#d1d1d1"
   inkscape:zoom="0.729375"
   inkscape:cx="404.45587"
   inkscape:cy="481.23393"
   inkscape:window-width="1278"
   inkscape:window-height="1360"
   inkscape:window-x="1273"
   inkscape:window-y="0"
   inkscape:window-maximized="0"
   inkscape:current-layer="Layer_1"><inkscape:page
     x="0"
     y="0"
     width="512"
     height="512"
     id="page2"
     margin="0"
     bleed="0" /></sodipodi:namedview>
<path
   style="font-variation-settings:normal;opacity:1;vector-effect:none;fill:#ffffff;fill-opacity:0.147268;stroke-width:0.64;stroke-linecap:butt;stroke-linejoin:miter;stroke-miterlimit:4;stroke-dasharray:none;stroke-dashoffset:0;stroke-opacity:1;-inkscape-stroke:none;stop-color:#000000;stop-opacity:1"
   d="m 145.65896,32.904884 32.90488,28.517567 c 0,0 -5.26478,30.711226 -5.26478,39.047129 0,8.3359 -5.26478,28.9563 -9.6521,35.09854 -4.38732,6.14225 -17.988,23.25279 -20.62039,26.76264 -2.63239,3.50985 -13.16196,11.40703 -18.42674,19.3042 -5.26478,7.89717 -7.45844,9.6521 -11.84576,17.54927 -4.38732,7.89718 -16.671811,39.48586 -17.988003,43.87318 -1.316198,4.38732 -7.897171,42.11826 -8.774637,47.82176 -0.877465,5.70352 19.3042,79.84919 19.3042,79.84919 0,0 11.40703,15.79435 21.93659,23.69152 10.52956,7.89717 36.85347,16.23307 40.36333,18.86546 3.50985,2.6324 15.35561,8.33591 17.54926,9.21337 2.19367,0.87747 9.21337,7.01972 16.23308,8.77464 7.01971,1.75493 28.07884,5.70351 35.97601,5.26478 7.89717,-0.43873 10.09083,-1.31619 19.74293,-1.75492 9.6521,-0.43874 23.69152,3.94858 35.09854,-2.19366 11.40703,-6.14225 10.9683,-7.01971 21.05913,-13.16196 10.09083,-6.14225 20.62039,-11.40703 25.00771,-17.11054 4.38732,-5.70351 11.84576,-14.47814 15.35561,-17.988 3.50986,-3.50986 16.23308,-14.91688 16.23308,-14.91688 0,0 25.44644,-62.29991 25.44644,-64.49358 0,-2.19366 -1.31619,-22.37532 -1.31619,-33.78234 0,-11.40703 2.19366,-35.53728 5.26478,-42.99572 3.07112,-7.45844 10.9683,-23.25279 18.42674,-34.22108 7.45843,-10.96829 35.53727,-30.71123 44.75064,-33.34362 9.21337,-2.63239 21.93659,-0.43873 21.49785,-3.07112 C 483.48243,154.87232 437.4156,87.307629 437.4156,87.307629 L 372.48329,37.292202 290.44045,11.407027 208.3976,12.723222 Z"
   id="path3" /><g
   id="g2">
	<g
   id="g1">
		<path
   d="m 463.315,105.746 c -0.137,-0.189 -0.274,-0.379 -0.411,-0.568 -0.655,-0.895 -1.316,-1.786 -1.983,-2.673 -0.706,-0.941 -1.42,-1.876 -2.139,-2.807 -0.306,-0.396 -0.607,-0.794 -0.916,-1.189 -9.028,-11.563 -19.056,-22.343 -29.986,-32.234 -0.105,-0.095 -0.21,-0.19 -0.316,-0.285 -1.205,-1.088 -2.422,-2.163 -3.649,-3.229 -0.493,-0.429 -0.984,-0.86 -1.48,-1.285 -0.53,-0.454 -1.067,-0.9 -1.602,-1.348 C 383.409,28.524 338.293,8.607 289.98,2.239 289.783,2.213 289.584,2.184 289.387,2.159 288.125,1.996 286.861,1.844 285.595,1.699 284.959,1.626 284.322,1.557 283.685,1.488 282.583,1.371 281.483,1.253 280.379,1.15 279.253,1.043 278.123,0.952 276.993,0.86 275.847,0.767 274.699,0.681 273.55,0.603 272.243,0.515 270.935,0.432 269.624,0.364 268.916,0.327 268.205,0.296 267.496,0.265 266.194,0.208 264.89,0.16 263.584,0.122 262.967,0.105 262.352,0.084 261.734,0.07 259.825,0.028 257.914,0 256,0 c -2.32,0 -4.634,0.037 -6.944,0.098 -0.88,0.023 -1.755,0.065 -2.632,0.096 -1.407,0.052 -2.812,0.106 -4.215,0.179 -1.094,0.057 -2.185,0.129 -3.276,0.2 -1.161,0.076 -2.32,0.156 -3.477,0.247 -1.208,0.095 -2.416,0.198 -3.621,0.31 -1.019,0.095 -2.034,0.198 -3.05,0.305 -1.286,0.135 -2.572,0.272 -3.854,0.426 -0.916,0.11 -1.828,0.235 -2.742,0.355 -1.341,0.176 -2.683,0.347 -4.018,0.543 -0.847,0.125 -1.69,0.271 -2.535,0.403 -2.159,0.341 -4.312,0.706 -6.457,1.102 -1.358,0.249 -2.716,0.498 -4.068,0.77 -0.79,0.159 -1.578,0.333 -2.366,0.499 -1.586,0.334 -3.167,0.678 -4.744,1.041 -0.55,0.127 -1.098,0.259 -1.648,0.39 -1.992,0.473 -3.975,0.97 -5.952,1.491 -0.135,0.036 -0.269,0.07 -0.403,0.106 C 146.884,19.986 107.357,42.604 74.981,74.982 26.628,123.333 0,187.621 0,256 0,324.379 26.628,388.667 74.982,437.019 123.333,485.372 187.619,512 256,512 324.381,512 388.667,485.372 437.019,437.018 485.372,388.667 512,324.379 512,256 512,201.265 494.923,149.162 463.315,105.746 Z M 16.168,256 c 0,-92.204 52.31,-172.407 128.804,-212.531 15.742,11.251 24.104,24.499 25.495,40.389 3.856,44.043 -47.682,92.474 -48.199,92.954 -0.163,0.152 -0.32,0.308 -0.469,0.472 -27.323,29.863 -42.37,68.617 -42.37,109.121 0,65.192 38.784,121.491 94.486,147.052 L 158.04,474.896 C 74.495,437.361 16.168,353.367 16.168,256 Z M 256,495.832 c -29.159,0 -57.118,-5.237 -82.99,-14.81 l 15.923,-41.564 c 16.382,5.603 33.94,8.648 52.196,8.648 54.656,0 105.219,-27.31 135.256,-73.051 2.45,-3.733 1.412,-8.744 -2.32,-11.196 -3.734,-2.449 -8.744,-1.413 -11.196,2.32 -27.038,41.177 -72.55,65.759 -121.741,65.759 -80.245,0 -145.531,-65.284 -145.531,-145.531 0,-36.35 13.464,-71.132 37.919,-97.976 4.719,-4.433 57.468,-55.243 53.062,-105.941 C 185.008,64.425 176.505,48.731 161.263,35.692 190.34,23.139 222.37,16.168 256,16.168 c 1.849,0 3.691,0.028 5.53,0.07 0.485,0.011 0.969,0.025 1.453,0.039 1.582,0.045 3.161,0.105 4.736,0.18 0.269,0.013 0.54,0.023 0.81,0.037 1.885,0.097 3.764,0.218 5.637,0.358 0.252,0.019 0.503,0.041 0.756,0.06 1.765,0.138 3.525,0.293 5.278,0.47 0.149,0.015 0.297,0.029 0.446,0.044 84.573,8.673 156.266,61.473 191.613,134.93 -21.521,0.25 -39.464,7.262 -53.465,20.932 -37.243,36.357 -32.638,107.018 -32.134,113.442 -0.042,19.534 -3.888,38.48 -11.433,56.321 -1.74,4.111 0.184,8.855 4.296,10.594 4.106,1.741 8.855,-0.184 10.594,-4.296 8.435,-19.942 12.711,-41.118 12.711,-62.943 0,-0.232 -0.01,-0.462 -0.029,-0.693 -0.059,-0.686 -5.51,-68.835 27.288,-100.855 12.297,-12.004 28.871,-17.412 49.302,-16.134 10.61,27.062 16.443,56.5 16.443,87.277 0,132.243 -107.589,239.831 -239.832,239.831 z"
   fill="#4b8add"
   id="path1"
   style="fill:url(#linearGradient3)"
   inkscape:label="path1" />
	</g>
</g>
</svg>
