<?xml version="1.0" encoding="iso-8859-1"?>
<!-- Uploaded to: SVG Repo, www.svgrepo.com, Generator: SVG Repo Mixer Tools -->
<svg fill="#000000" height="800px" width="800px" version="1.1" id="Layer_1" xmlns="http://www.w3.org/2000/svg" xmlns:xlink="http://www.w3.org/1999/xlink" 
	 viewBox="0 0 512 512" xml:space="preserve">
<g>
	<g>
		<path d="M463.315,105.746c-0.137-0.189-0.274-0.379-0.411-0.568c-0.655-0.895-1.316-1.786-1.983-2.673
			c-0.706-0.941-1.42-1.876-2.139-2.807c-0.306-0.396-0.607-0.794-0.916-1.189c-9.028-11.563-19.056-22.343-29.986-32.234
			c-0.105-0.095-0.21-0.19-0.316-0.285c-1.205-1.088-2.422-2.163-3.649-3.229c-0.493-0.429-0.984-0.86-1.48-1.285
			c-0.53-0.454-1.067-0.9-1.602-1.348C383.409,28.524,338.293,8.607,289.98,2.239c-0.197-0.026-0.396-0.055-0.593-0.08
			c-1.262-0.163-2.526-0.315-3.792-0.46c-0.636-0.073-1.273-0.142-1.91-0.211c-1.102-0.117-2.202-0.235-3.306-0.338
			c-1.126-0.107-2.256-0.198-3.386-0.29c-1.146-0.093-2.294-0.179-3.443-0.257c-1.307-0.088-2.615-0.171-3.926-0.239
			c-0.708-0.037-1.419-0.068-2.128-0.099c-1.302-0.057-2.606-0.105-3.912-0.143c-0.617-0.017-1.232-0.038-1.85-0.052
			C259.825,0.028,257.914,0,256,0c-2.32,0-4.634,0.037-6.944,0.098c-0.88,0.023-1.755,0.065-2.632,0.096
			c-1.407,0.052-2.812,0.106-4.215,0.179c-1.094,0.057-2.185,0.129-3.276,0.2c-1.161,0.076-2.32,0.156-3.477,0.247
			c-1.208,0.095-2.416,0.198-3.621,0.31c-1.019,0.095-2.034,0.198-3.05,0.305c-1.286,0.135-2.572,0.272-3.854,0.426
			c-0.916,0.11-1.828,0.235-2.742,0.355c-1.341,0.176-2.683,0.347-4.018,0.543c-0.847,0.125-1.69,0.271-2.535,0.403
			c-2.159,0.341-4.312,0.706-6.457,1.102c-1.358,0.249-2.716,0.498-4.068,0.77c-0.79,0.159-1.578,0.333-2.366,0.499
			c-1.586,0.334-3.167,0.678-4.744,1.041c-0.55,0.127-1.098,0.259-1.648,0.39c-1.992,0.473-3.975,0.97-5.952,1.491
			c-0.135,0.036-0.269,0.07-0.403,0.106c-43.114,11.425-82.641,34.043-115.017,66.421C26.628,123.333,0,187.621,0,256
			s26.628,132.667,74.982,181.019C123.333,485.372,187.619,512,256,512s132.667-26.628,181.019-74.982
			C485.372,388.667,512,324.379,512,256C512,201.265,494.923,149.162,463.315,105.746z M16.168,256
			c0-92.204,52.31-172.407,128.804-212.531c15.742,11.251,24.104,24.499,25.495,40.389c3.856,44.043-47.682,92.474-48.199,92.954
			c-0.163,0.152-0.32,0.308-0.469,0.472c-27.323,29.863-42.37,68.617-42.37,109.121c0,65.192,38.784,121.491,94.486,147.052
			l-15.875,41.439C74.495,437.361,16.168,353.367,16.168,256z M256,495.832c-29.159,0-57.118-5.237-82.99-14.81l15.923-41.564
			c16.382,5.603,33.94,8.648,52.196,8.648c54.656,0,105.219-27.31,135.256-73.051c2.45-3.733,1.412-8.744-2.32-11.196
			c-3.734-2.449-8.744-1.413-11.196,2.32c-27.038,41.177-72.55,65.759-121.741,65.759c-80.245,0-145.531-65.284-145.531-145.531
			c0-36.35,13.464-71.132,37.919-97.976c4.719-4.433,57.468-55.243,53.062-105.941c-1.57-18.065-10.073-33.759-25.315-46.798
			C190.34,23.139,222.37,16.168,256,16.168c1.849,0,3.691,0.028,5.53,0.07c0.485,0.011,0.969,0.025,1.453,0.039
			c1.582,0.045,3.161,0.105,4.736,0.18c0.269,0.013,0.54,0.023,0.81,0.037c1.885,0.097,3.764,0.218,5.637,0.358
			c0.252,0.019,0.503,0.041,0.756,0.06c1.765,0.138,3.525,0.293,5.278,0.47c0.149,0.015,0.297,0.029,0.446,0.044
			c84.573,8.673,156.266,61.473,191.613,134.93c-21.521,0.25-39.464,7.262-53.465,20.932
			c-37.243,36.357-32.638,107.018-32.134,113.442c-0.042,19.534-3.888,38.48-11.433,56.321c-1.74,4.111,0.184,8.855,4.296,10.594
			c4.106,1.741,8.855-0.184,10.594-4.296c8.435-19.942,12.711-41.118,12.711-62.943c0-0.232-0.01-0.462-0.029-0.693
			c-0.059-0.686-5.51-68.835,27.288-100.855c12.297-12.004,28.871-17.412,49.302-16.134c10.61,27.062,16.443,56.5,16.443,87.277
			C495.832,388.244,388.243,495.832,256,495.832z"/>
	</g>
</g>
</svg>